HIERARCHY
ROOT Hips
{
 OFFSET 0.000000 0.000000 0.000000
 CHANNELS 6 Xposition Yposition Zposition Yrotation Xrotation Zrotation
 JOINT Chest
 {
  OFFSET 0.000000 9.585900 0.002600
  CHANNELS 3 Yrotation Xrotation Zrotation
  JOINT Chest2
  {
   OFFSET 0.000000 9.601200 -0.005300
   CHANNELS 3 Yrotation Xrotation Zrotation
   JOINT Chest3
   {
    OFFSET 0.000000 9.561800 0.000000
    CHANNELS 3 Yrotation Xrotation Zrotation
    JOINT Chest4
    {
     OFFSET 0.000000 9.552100 0.000000
     CHANNELS 3 Yrotation Xrotation Zrotation
     JOINT Neck
     {
      OFFSET 0.000000 14.453000 0.000000
      CHANNELS 3 Yrotation Xrotation Zrotation
      JOINT Head
      {
       OFFSET 0.000000 8.936500 -0.011300
       CHANNELS 3 Yrotation Xrotation Zrotation
       End Site
       {
        OFFSET 0.000000 17.073600 -0.006000
       }
      }
     }
     JOINT RightCollar
     {
      OFFSET -2.921100 9.558500 0.000000
      CHANNELS 3 Yrotation Xrotation Zrotation
      JOINT RightShoulder
      {
       OFFSET -13.519700 0.000000 0.000000
       CHANNELS 3 Yrotation Xrotation Zrotation
       JOINT RightElbow
       {
        OFFSET 0.000000 -29.696600 0.000000
        CHANNELS 3 Yrotation Xrotation Zrotation
        JOINT RightWrist
        {
         OFFSET 0.000000 -24.004700 0.000000
         CHANNELS 3 Yrotation Xrotation Zrotation
         End Site
         {
          OFFSET 0.000000 -17.728500 0.000000
         }
        }
       }
      }
     }
     JOINT LeftCollar
     {
      OFFSET 2.921100 9.558500 0.000000
      CHANNELS 3 Yrotation Xrotation Zrotation
      JOINT LeftShoulder
      {
       OFFSET 13.519700 0.000000 0.000000
       CHANNELS 3 Yrotation Xrotation Zrotation
       JOINT LeftElbow
       {
        OFFSET 0.000000 -29.696600 0.000000
        CHANNELS 3 Yrotation Xrotation Zrotation
        JOINT LeftWrist
        {
         OFFSET 0.000000 -24.004700 0.000000
         CHANNELS 3 Yrotation Xrotation Zrotation
         End Site
         {
          OFFSET 0.000000 -17.728500 0.000000
         }
        }
       }
      }
     }
    }
   }
  }
 }
 JOINT RightHip
 {
  OFFSET -7.771700 -0.012900 -0.001300
  CHANNELS 3 Yrotation Xrotation Zrotation
  JOINT RightKnee
  {
   OFFSET 0.000000 -40.869800 0.001200
   CHANNELS 3 Yrotation Xrotation Zrotation
   JOINT RightAnkle
   {
    OFFSET 0.000000 -39.717900 0.002100
    CHANNELS 3 Yrotation Xrotation Zrotation
    JOINT RightToe
    {
     OFFSET 0.000000 -4.965400 11.033500
     CHANNELS 3 Yrotation Xrotation Zrotation
     End Site
     {
      OFFSET 0.000000 -1.423100 5.872300
     }
    }
   }
  }
 }
 JOINT LeftHip
 {
  OFFSET 7.771700 -0.012900 -0.001300
  CHANNELS 3 Yrotation Xrotation Zrotation
  JOINT LeftKnee
  {
   OFFSET 0.000000 -40.869800 0.001200
   CHANNELS 3 Yrotation Xrotation Zrotation
   JOINT LeftAnkle
   {
    OFFSET 0.000000 -39.717900 0.002100
    CHANNELS 3 Yrotation Xrotation Zrotation
    JOINT LeftToe
    {
     OFFSET 0.000000 -4.965400 11.033500
     CHANNELS 3 Yrotation Xrotation Zrotation
     End Site
     {
      OFFSET 0.000000 -1.423100 5.872300
     }
    }
   }
  }
 }
}
MOTION
Frames: 11
Frame Time: 0.008333
0.000000 85.388000 0.000000 0.000000 -5.767877 0.000000 0.000000 11.653817 0.000000 0.000000 -5.885947 0.000000 0.000000 -0.000000 0.000000 0.000000 -0.000000 0.000000 0.000000 12.528835 0.000000 0.000000 0.711642 0.000000 0.000000 -0.000000 0.000000 0.000000 0.000000 -90.000000 0.000000 -2.309062 0.000000 0.000000 2.309062 0.000000 0.000000 -0.000000 0.000000 0.000000 -0.000000 90.000000 0.000000 -2.309062 0.000000 0.000000 2.309062 0.000000 0.000000 8.520406 0.000000 0.000000 1.905762 0.000000 -0.000000 -4.658285 0.000000 0.000000 -0.000000 0.000000 0.000000 8.520406 0.000000 0.000000 1.905762 0.000000 -0.000000 -4.658285 0.000000 0.000000 -0.000000 0.000000
-1.704627 50.081476 37.716771 172.391663 -33.120234 -6.137060 7.140160 24.725567 8.575572 0.897482 4.138398 0.957741 1.460571 6.619679 1.594775 5.315260 20.381845 5.692316 -2.186683 16.312413 1.569700 -4.644294 -5.517741 3.624454 0.646621 -2.090536 -7.304425 6.665346 -18.577825 -6.865749 -132.205699 -37.268745 142.130071 -20.694823 -7.275203 37.903468 -14.873878 -2.854097 0.924521 7.597484 -24.418753 2.390925 118.591259 -40.700460 -146.409470 48.207115 -5.142887 -26.637972 -0.159272 -47.860624 9.876905 -88.242628 82.932443 -75.838392 0.909293 -9.205039 -5.849645 -0.173378 1.124256 -0.082543 -9.621879 -51.690874 16.225576 -155.347865 84.619537 -162.688051 -0.568944 -12.162096 6.789274 -0.051852 -0.246713 -0.097274
-1.704455 50.082758 37.715835 172.378058 -33.119276 -6.119428 7.148088 24.750508 8.586326 0.897174 4.149471 0.962762 1.463343 6.632656 1.599018 5.319923 20.397278 5.700746 -2.292270 16.308457 1.532994 -4.820179 -5.500202 3.599599 0.540261 -2.044960 -7.309278 6.673716 -18.576412 -6.843801 -132.552760 -37.494144 142.194107 -20.517510 -7.160416 37.413957 -14.870710 -2.845747 0.879044 7.497809 -24.421478 2.428684 119.056283 -40.931892 -146.542387 48.368943 -5.610540 -25.472682 -0.140372 -47.860016 9.863320 -88.229044 82.935172 -75.822806 0.913227 -9.212804 -5.851718 -0.180070 1.130515 -0.084805 -9.604385 -51.694320 16.201696 -155.294370 84.618703 -162.632400 -0.548685 -12.144209 6.800207 -0.050828 -0.256279 -0.106605
-1.706865 50.083030 37.715324 172.367764 -33.109231 -6.085842 7.142075 24.764610 8.575075 0.899606 4.161181 0.964987 1.464498 6.641335 1.602507 5.321025 20.408030 5.707701 -2.402201 16.294965 1.493087 -5.003933 -5.505555 3.563886 0.429493 -2.011862 -7.308628 6.662272 -18.564007 -6.835540 -132.928477 -37.754826 142.259397 -20.339633 -7.083445 36.866049 -14.869199 -2.865388 0.845536 7.405463 -24.391890 2.458944 119.324115 -41.111792 -146.542082 48.523001 -6.088150 -24.267208 -0.105700 -47.869854 9.823121 -88.250496 82.939947 -75.845041 0.917076 -9.231663 -5.845030 -0.187018 1.142515 -0.090648 -9.581090 -51.702864 16.150567 -155.310144 84.627089 -162.648176 -0.527624 -12.141188 6.793176 -0.051750 -0.242171 -0.097055
-1.707306 50.084473 37.713031 172.369626 -33.111247 -6.066563 7.129166 24.782914 8.567966 0.897913 4.192595 0.994232 1.464290 6.650792 1.602427 5.316453 20.401328 5.689204 -2.517543 16.269093 1.448687 -5.192196 -5.530553 3.515845 0.339553 -2.013146 -7.316593 6.596331 -18.518779 -6.824067 -133.289383 -38.020037 142.312173 -20.169084 -7.035243 36.284605 -14.872614 -2.903609 0.821424 7.362404 -24.371563 2.471439 119.395756 -41.275608 -146.405153 48.654412 -6.604038 -22.999591 -0.085583 -47.867464 9.794769 -88.294661 82.942597 -75.887722 0.922188 -9.237675 -5.843395 -0.193894 1.141141 -0.093240 -9.566630 -51.697679 16.112417 -155.337313 84.633704 -162.676966 -0.518965 -12.141611 6.788133 -0.051785 -0.228659 -0.084094
-1.707111 50.085603 37.710650 172.369792 -33.113033 -6.047613 7.119239 24.791204 8.552154 0.897268 4.203351 1.008292 1.463193 6.642996 1.589144 5.317419 20.426037 5.719078 -2.632900 16.236763 1.390089 -5.384782 -5.572339 3.458721 0.283729 -2.023060 -7.339177 6.466973 -18.455392 -6.810290 -133.611975 -38.272116 142.350182 -20.026536 -7.008818 35.694190 -14.856079 -2.910819 0.790460 7.313294 -24.374449 2.477632 119.404185 -41.441316 -146.212306 48.770307 -7.171830 -21.661224 -0.070734 -47.867423 9.775661 -88.352582 82.943554 -75.947539 0.920199 -9.240720 -5.842696 -0.194485 1.137103 -0.094868 -9.555998 -51.694479 16.074722 -155.156086 84.631098 -162.495674 -0.483136 -12.139372 6.784423 -0.050283 -0.220207 -0.078439
-1.706802 50.085734 37.709028 172.372317 -33.107787 -6.028948 7.108648 24.799851 8.547634 0.894335 4.203390 1.007199 1.463926 6.650721 1.594947 5.307709 20.443435 5.743314 -2.697954 16.196909 1.325958 -5.636131 -5.643816 3.396377 0.271174 -2.051000 -7.385731 6.260059 -18.369502 -6.789740 -133.888189 -38.506315 142.374539 -19.934049 -6.998364 35.125914 -14.819590 -2.958070 0.738128 7.218112 -24.323532 2.515685 119.435460 -41.606008 -146.013159 48.882364 -7.786389 -20.264274 -0.064004 -47.879702 9.762162 -88.438519 82.945177 -76.040141 0.909192 -9.225894 -5.842494 -0.192155 1.116927 -0.094254 -9.550773 -51.696296 16.041705 -155.098552 84.634232 -162.444600 -0.457973 -12.146255 6.793305 -0.054735 -0.204995 -0.081857
-1.705138 50.085308 37.707724 172.376893 -33.100481 -6.017490 7.097832 24.811689 8.561039 0.892637 4.194495 0.993377 1.456546 6.662307 1.613396 5.300224 20.432071 5.709619 -2.844183 16.155501 1.277617 -5.806125 -5.710685 3.329813 0.159854 -2.083406 -7.388081 6.123392 -18.251647 -6.766197 -134.120883 -38.717606 142.381955 -19.894036 -7.003714 34.607325 -14.809896 -2.987367 0.728839 7.154889 -24.255084 2.554672 119.469540 -41.784948 -145.801970 48.978455 -8.448080 -18.813758 -0.057544 -47.890410 9.748153 -88.472801 82.954983 -76.074445 0.907414 -9.218821 -5.845152 -0.200290 1.107028 -0.093534 -9.559348 -51.701929 16.022518 -155.015212 84.633155 -162.365165 -0.433264 -12.151349 6.785565 -0.050181 -0.194379 -0.073032
-1.704125 50.083817 37.706984 172.380097 -33.087022 -5.999757 7.089658 24.804491 8.554514 0.887601 4.194133 0.991213 1.455033 6.658713 1.616404 5.284240 20.440660 5.714644 -2.987917 16.090704 1.207934 -5.978194 -5.784665 3.268733 0.100121 -2.132708 -7.426245 5.929087 -18.101758 -6.727340 -134.316919 -38.900354 142.369561 -19.891131 -7.025927 34.150272 -14.793247 -3.041204 0.699920 7.092113 -24.174629 2.602332 119.515813 -41.967222 -145.588668 49.038811 -9.159586 -17.317023 -0.048238 -47.915410 9.736026 -88.571035 82.958043 -76.176535 0.885784 -9.198764 -5.850428 -0.187991 1.086029 -0.085892 -9.567279 -51.713823 16.000096 -154.894252 84.631882 -162.251521 -0.408013 -12.157833 6.776740 -0.047691 -0.181430 -0.056397
-1.702332 50.082050 37.706070 172.390446 -33.073690 -5.988525 7.080550 24.791258 8.549092 0.878638 4.196815 0.984520 1.457627 6.647445 1.622653 5.270944 20.449883 5.724661 -3.104046 16.025641 1.147276 -6.179137 -5.874425 3.217135 0.068136 -2.164698 -7.461449 5.698622 -17.948489 -6.692982 -134.484416 -39.057092 142.332144 -19.914142 -7.057546 33.753613 -14.782918 -3.103729 0.668724 7.019572 -24.080254 2.661716 119.541959 -42.127858 -145.346751 49.066193 -9.886974 -15.821968 -0.042999 -47.938964 9.726075 -88.665936 82.959340 -76.273449 0.866517 -9.180002 -5.856592 -0.181621 1.065118 -0.077592 -9.592576 -51.723782 15.988949 -154.738138 84.628860 -162.107731 -0.381940 -12.167060 6.769593 -0.046438 -0.171265 -0.055855
-1.699009 50.079985 37.705303 172.407318 -33.059029 -5.988526 7.068376 24.769049 8.547463 0.878622 4.201066 0.988217 1.449507 6.638621 1.617846 5.265359 20.447334 5.732259 -3.222746 15.957889 1.092391 -6.374105 -5.968665 3.171594 0.017403 -2.210486 -7.502350 5.470319 -17.771280 -6.641970 -134.624480 -39.194984 142.264886 -19.960618 -7.099077 33.401422 -14.780585 -3.124332 0.648090 6.951398 -24.017600 2.721323 119.488745 -42.249749 -145.037044 49.072350 -10.585787 -14.389077 -0.048535 -47.957830 9.719679 -88.722974 82.959346 -76.329528 0.873903 -9.167599 -5.862123 -0.191632 1.056416 -0.075119 -9.640435 -51.734753 15.998115 -154.614453 84.624194 -162.000603 -0.360002 -12.174239 6.764997 -0.046556 -0.163491 -0.057664
